<?xml version="1.0" standalone="no"?>
<!DOCTYPE svg PUBLIC "-//W3C//DTD SVG 20010904//EN"
 "http://www.w3.org/TR/2001/REC-SVG-20010904/DTD/svg10.dtd">
<svg version="1.0" xmlns="http://www.w3.org/2000/svg"
 width="512.000000pt" height="512.000000pt" viewBox="0 0 512.000000 512.000000"
 preserveAspectRatio="xMidYMid meet">

<g transform="translate(0.000000,512.000000) scale(0.100000,-0.100000)"
fill="#000000" stroke="none">
<path d="M0 2560 l0 -2560 2560 0 2560 0 0 2560 0 2560 -2560 0 -2560 0 0
-2560z m589 1793 l22 -72 91 -3 91 -3 -63 -45 c-35 -25 -68 -48 -73 -51 -5 -4
2 -40 17 -85 14 -44 26 -82 26 -86 0 -4 -31 15 -70 43 -38 28 -75 49 -82 46
-7 -4 -41 -27 -75 -52 -35 -25 -63 -44 -63 -42 0 2 11 37 25 77 14 40 25 79
25 85 0 6 -30 34 -67 61 l-68 49 90 5 89 5 24 79 c13 43 27 74 32 70 4 -5 18
-41 29 -81z m947 44 c10 -29 15 -32 60 -37 l49 -5 -37 -23 c-42 -26 -42 -26
-27 -71 15 -42 6 -48 -27 -22 -34 27 -40 26 -81 -5 -18 -14 -33 -23 -33 -21 0
3 6 23 14 45 l15 41 -37 30 -37 30 47 1 c46 0 47 1 59 40 13 44 19 44 35 -3z
m1820 -431 c338 -71 599 -211 840 -451 345 -344 502 -774 472 -1297 -16 -293
-110 -573 -275 -823 -88 -133 -292 -337 -423 -424 -312 -207 -648 -302 -1025
-288 -387 15 -728 143 -1017 384 -71 59 -228 220 -228 233 0 4 30 13 66 22
l65 16 98 -97 c213 -210 468 -347 771 -413 91 -19 134 -22 315 -22 179 0 225
3 310 22 317 70 550 196 771 416 219 219 348 458 416 770 30 138 33 492 5 631
-65 316 -198 568 -421 791 -222 221 -456 347 -776 415 -90 20 -135 23 -310 23
-227 0 -318 -14 -502 -75 -297 -100 -592 -320 -758 -567 -14 -21 -18 -22 -80
-11 -35 5 -66 12 -69 14 -2 2 22 40 54 84 263 365 658 600 1123 666 150 22
424 13 578 -19z m1344 -43 c0 -9 17 -13 52 -13 l53 0 -38 -27 c-40 -29 -41
-31 -21 -102 l7 -24 -35 26 c-42 32 -42 32 -80 6 -35 -25 -42 -21 -28 15 16
42 13 51 -27 79 l-38 27 51 0 51 0 13 43 13 42 13 -30 c7 -16 13 -36 14 -42z"/>
</g>
</svg>
